<svg width="414" height="440" viewBox="0 0 414 440" fill="none" xmlns="http://www.w3.org/2000/svg">
<path d="M149.054 332.5C157.696 314.225 165.75 292.94 173.214 268H164.571V225H184.214C196.196 169.1 203.857 98.795 203.857 10H243.143C243.143 98.795 251 169.1 262.786 225H282.429V268H273.786C281.25 292.94 289.304 314.225 297.946 332.5H321.714V375.5L361 440H313.464C298.339 402.16 263.768 375.5 223.5 375.5C183.232 375.5 148.661 402.16 133.536 440H86L125.286 375.5L124.696 332.5H149.054ZM235.089 268H211.911C205.97 290.068 198.551 311.626 189.714 332.5H257.286C249.429 313.795 241.768 292.295 235.089 268Z" fill="white"/>
</svg>
